Coordinates
version=1
nRows=16
nColumns=36
inDegrees=yes

Units are S.I. units (second, meters, Newtons, ...)
If the header above contains a line with 'inDegrees', this indicates whether rotational values are in degrees (yes) or radians (no).

endheader
time	pelvis_tilt	pelvis_list	pelvis_rotation	pelvis_tx	pelvis_ty	pelvis_tz	hip_flexion_r	hip_adduction_r	hip_rotation_r	knee_angle_r	knee_angle_r_beta	ankle_angle_r	subtalar_angle_r	mtp_angle_r	hip_flexion_l	hip_adduction_l	hip_rotation_l	knee_angle_l	knee_angle_l_beta	ankle_angle_l	subtalar_angle_l	mtp_angle_l	lumbar_extension	lumbar_bending	lumbar_rotation	arm_flex_r	arm_add_r	arm_rot_r	elbow_flex_r	pro_sup_r	arm_flex_l	arm_add_l	arm_rot_l	elbow_flex_l	pro_sup_l
      0.00000000	      6.90026027	     -0.07025706	      1.67581531	     -0.14138425	      1.30382278	      0.36813794	    -10.73271380	     -0.14906627	      2.27645774	      0.11489226	      0.00200525	      3.20014391	     -7.64563483	     -6.18926688	    -10.98199664	     -1.21038808	      4.14997292	      1.23676034	      0.02158554	      3.20329325	     -8.72544761	     -6.18926688	    -14.33622518	      0.36027209	     -0.50765454	      3.30056869	     -9.87095156	      3.12909950	     17.98924458	     86.03217266	      4.23544622	     -8.16317942	      2.95666900	     21.28909457	     85.80930048
      0.01666670	      6.51661996	     -0.48354354	      1.46095561	     -0.13934974	      1.29830233	      0.36771291	    -10.49116901	      0.23280119	      3.79104408	      0.11546018	      0.00201516	      5.15126618	     -7.67993826	     -6.49180009	    -11.07871235	     -1.67188103	      5.61451171	      0.75408529	      0.01316127	      3.13500152	     -9.63957529	     -6.49180009	    -13.45054212	      0.63492663	     -0.18572866	      2.75375708	     -9.93087014	      3.32073306	     17.74034702	     82.29657021	      3.38006293	     -7.76678973	      3.05816074	     21.62887213	     81.91363023
      0.03333330	      5.99537745	     -0.89539120	      0.78191430	     -0.13975305	      1.29889185	      0.36832718	     -9.88693512	      0.55284760	      5.83961554	      0.11817874	      0.00206261	      5.10972965	     -9.20746416	     -6.68742147	    -10.80556418	     -2.06068244	      6.29945332	      0.39363761	      0.00687027	      3.12040020	    -10.26354509	     -6.68742147	    -12.53209025	      1.27711882	      0.10041464	      3.47720597	    -10.51417507	      6.65201341	     16.30473816	     84.06786661	      2.97585592	     -7.79238223	      5.15074198	     20.67512800	     82.49417240
      0.05000000	      6.02925917	     -1.04055089	      0.97367838	     -0.14101149	      1.30080906	      0.36796518	     -9.96792371	      0.67867069	      5.77499808	      0.12560710	      0.00219226	      5.95838930	     -8.34995860	     -6.79921797	    -10.82527803	     -2.29775533	      6.40685734	      0.34008729	      0.00593564	      3.86261310	     -9.55491957	     -6.79921797	    -12.51215755	      1.60655274	     -0.22921294	      3.39291430	    -10.58166360	      6.75384979	     16.05833779	     82.98152998	      2.89437887	     -7.69834813	      4.98667083	     20.50603559	     81.32159900
      0.06666670	      6.20023838	     -1.12211446	      0.86022654	     -0.14092303	      1.29727436	      0.36802200	    -10.16856462	      0.73500241	      6.12822079	      0.13878723	      0.00242229	      6.60735558	     -7.96758457	     -6.95090973	    -11.05292876	     -2.39956916	      6.26406680	      0.33357391	      0.00582196	      4.30614303	     -9.25888998	     -6.95090973	    -12.65126474	      1.78270321	     -0.38044862	      3.57590901	    -10.71321130	      8.36803302	     15.52092478	     82.94550641	      2.68271057	     -7.66804470	      4.91229287	     20.62527331	     80.59649425
      0.08333330	      6.22040146	     -1.07039364	      0.66580442	     -0.14227317	      1.29988484	      0.36814691	    -10.23221056	      0.59560712	      6.43684236	      0.15056206	      0.00262780	      7.01107914	     -7.71203475	     -7.05456016	    -11.03769599	     -2.34399265	      5.91788392	      0.33944350	      0.00592441	      4.75156119	     -8.59127682	     -7.05456016	    -12.70454839	      1.76816573	     -0.23681004	      3.53727033	    -10.65644826	      8.51065987	     15.28598678	     81.31587763	      2.69842066	     -7.54213914	      4.53860441	     20.49610583	     79.04148881
      0.10000000	      6.31017778	     -1.03730031	      0.47048787	     -0.14231928	      1.29639840	      0.36843413	    -10.36728832	      0.48300804	      6.74307848	      0.16490851	      0.00287820	      7.21991347	     -7.84124976	     -7.13269121	    -11.14131591	     -2.29621298	      5.60731324	      0.35358300	      0.00617119	      4.82099814	     -8.43815913	     -7.13269121	    -12.82760478	      1.74933282	     -0.14223612	      3.62376227	    -10.70545856	      9.68166201	     15.07972974	     80.53385879	      2.63000257	     -7.49361286	      4.42409917	     20.60149773	     78.07891584
      0.11666670	      6.48872763	     -0.98106932	      0.34836264	     -0.14367429	      1.29950676	      0.36846759	    -10.60244947	      0.36946597	      6.84682292	      0.17904114	      0.00312486	      7.44600067	     -7.72049721	     -7.20644496	    -11.33549361	     -2.22055922	      5.13924748	      0.37619377	      0.00656582	      4.97206797	     -8.00402664	     -7.20644496	    -13.23377841	      1.69575845	      0.13369281	      3.56026593	    -10.70947907	      9.76111281	     15.18753887	     78.71890365	      2.74518481	     -7.37335336	      4.08072281	     20.73184666	     76.46476759
      0.13333330	      6.69338732	     -0.86101431	      0.41103938	     -0.14407201	      1.29976160	      0.36843646	    -10.84432194	      0.23525937	      6.38493579	      0.19212914	      0.00335329	      7.78601017	     -7.25347979	     -7.25748469	    -11.45814636	     -2.09822005	      4.93203823	      0.40241465	      0.00702346	      4.83498819	     -7.87385368	     -7.25748469	    -13.73672731	      1.59468582	      0.19959412	      3.57018462	    -10.67541917	      9.88428499	     15.24175906	     77.06081259	      2.90554398	     -7.27836603	      3.80823080	     20.78753143	     74.98752363
      0.15000000	      6.67717637	     -0.84580751	      0.40278217	     -0.14519988	      1.29662298	      0.36836402	    -10.88569076	      0.21868994	      6.37118143	      0.21321703	      0.00372134	      7.90377512	     -7.32993336	     -7.25736844	    -11.34664862	     -2.05788779	      4.79347804	      0.42720004	      0.00745605	      4.88231596	     -7.95023942	     -7.25736844	    -13.84510845	      1.60752717	      0.23543121	      3.60391103	    -10.67192715	      9.89808077	     15.21091857	     77.07750118	      2.92091936	     -7.27166353	      3.81108950	     20.75819097	     75.00065279
      0.16666670	      7.21576253	     -0.77525945	      0.15874128	     -0.14601655	      1.29719882	      0.36876156	    -11.45644853	      0.11693370	      6.97665877	      0.21727052	      0.00379209	      7.77799579	     -7.87051572	     -7.30486978	    -11.84981061	     -1.92938885	      3.92496024	      0.46075047	      0.00804161	      4.75242411	     -7.45289271	     -7.30486978	    -14.88326581	      1.44701351	      0.82322080	      3.65002560	    -10.94752134	     11.24273022	     15.89055967	     76.22361254	      3.32384433	     -7.26639411	      4.21795926	     21.23099531	     74.34793934
      0.18333330	      7.50127948	     -0.72573321	      0.16490808	     -0.14703653	      1.29711714	      0.36862797	    -11.78705960	      0.08105383	      6.92958567	      0.22906093	      0.00399787	      7.93305882	     -7.82959978	     -7.32836910	    -12.06248612	     -1.86506706	      3.64252657	      0.49923316	      0.00871326	      4.56076217	     -7.33657228	     -7.32836910	    -15.49866875	      1.37300204	      1.02906113	      3.68046119	    -10.94730912	     11.29145027	     16.12280140	     75.37214667	      3.59749186	     -7.19628055	      4.05197092	     21.35540153	     73.67884633
      0.20000000	      7.85579833	     -0.70510117	      0.24043115	     -0.14687536	      1.30013349	      0.36838620	    -12.21356670	      0.08786102	      6.82351335	      0.23700499	      0.00413652	      8.02083995	     -7.81182999	     -7.34881505	    -12.38510081	     -1.85183684	      3.49332359	      0.52799056	      0.00921517	      4.32045658	     -7.38718091	     -7.34881505	    -16.16093195	      1.33916410	      1.19280895	      3.71825122	    -11.03734427	     11.63038769	     16.38885085	     75.08662995	      3.87045690	     -7.18880417	      4.21542824	     21.42801855	     73.67828340
      0.21666670	      7.87299942	     -0.67841487	      0.20149140	     -0.14718071	      1.29632253	      0.36817269	    -12.25336584	      0.05797703	      6.80753209	      0.25397694	      0.00443273	      8.07020891	     -7.84704936	     -7.34896657	    -12.35202611	     -1.80042710	      3.39180359	      0.58707818	      0.01024645	      4.27298250	     -7.40512549	     -7.34896657	    -16.29361720	      1.36297510	      1.12144997	      3.58094530	    -10.98571066	     11.64498228	     16.35202603	     75.09159512	      3.90915812	     -7.17688013	      4.21804771	     21.42454932	     73.68752037
      0.23333330	      8.46453711	     -0.65544034	      0.17576895	     -0.14810991	      1.30041036	      0.36823981	    -12.90400608	      0.05133695	      6.57577567	      0.25817116	      0.00450594	      8.31962914	     -7.51457889	     -7.38308278	    -12.95963334	     -1.76114692	      3.14526906	      0.66997107	      0.01169320	      4.32616115	     -7.06029342	     -7.38308278	    -17.42354018	      1.27195650	      1.25568539	      3.46093050	    -11.04306938	     11.41034400	     17.06851080	     73.43159222	      4.21854964	     -7.12713781	      3.87663262	     21.73529773	     72.34552227
      0.25000000	      8.61107116	     -0.66148529	      0.17745275	     -0.14871750	      1.30022886	      0.36808924	    -13.08140023	      0.09114170	      6.74444795	      0.26934115	      0.00470089	      8.17214918	     -7.99940163	     -7.43851768	    -13.08923168	     -1.77558267	      3.08020347	      0.74709918	      0.01303934	      4.16189462	     -7.13827724	     -7.43851768	    -17.80932006	      1.25501922	      1.33204574	      3.32322757	    -11.11619889	     12.55270315	     17.26926132	     71.77397002	      4.49843509	     -7.30283325	      5.19667947	     21.59192760	     71.58347389
